<?xml version="1.0" encoding="UTF-8"?>
<svg id="Layer_1" data-name="Layer 1" xmlns="http://www.w3.org/2000/svg" version="1.1" viewBox="0 0 288 288">
  <defs>
    <style>
      .cls-1 {
        fill: #3f51b5;
      }

      .cls-1, .cls-2 {
        stroke-width: 0px;
      }

      .cls-2 {
        fill: #fff;
      }
    </style>
  </defs>
  <rect class="cls-1" x="10" y="6" width="270" height="270" rx="135" ry="135"/>
  <rect class="cls-2" x="246.7" y="120.5" width="6.3" height="9.5"/>
  <rect class="cls-2" x="246.7" y="143.9" width="6.3" height="9.5"/>
  <g>
    <path class="cls-2" d="M167.7,134.7c-11.1,0-18.9,6.5-20.7,17.4l-2.3,13.7c-.2,1.1-.3,2.2-.3,3.5,0,8.7,6.7,14.3,17,14.3s18.8-6.5,20.6-17.3l2.3-13.7c.2-1.1.3-2.2.3-3.5,0-8.7-6.7-14.3-17-14.3h0ZM176.8,150c0,.8,0,1.7-.2,2.6l-2.1,12.7c-1.2,7.3-5.7,11.1-12.9,11.1s-9.1-2.9-9.1-8.2,0-1.7.2-2.6l2.1-12.7c1.2-7.3,5.7-11.1,12.9-11.1s9.1,2.9,9.1,8.2h0Z"/>
    <path class="cls-2" d="M219.1,135.7l-.8.8-4.8,28.8c-1.2,7-5.6,11-12.2,11s-8.6-4.4-8.6-8.1,0-1.7.2-2.6l4.9-29.7-1.1-1-5.9.8-.8.8-4.9,29.4c-.2,1.1-.3,2.2-.3,3.4,0,8.7,6.3,14.2,16.4,14.2s18-6.1,19.9-17.2l5.1-30.3-1.1-1-5.9.8h0Z"/>
    <path class="cls-2" d="M262.3,110.1h-14c-1.5,0-2.7,1.2-2.7,2.7v1.2c0,.7.3,1.4.8,1.9s1.2.8,1.9.8h9.7c.2,0,.3,0,.4.1.1.1.2.3.2.4v40.3c0,.2,0,.3-.2.4s-.3.2-.4.2h-11c-3,0-5.4-2.5-5.4-5.5v-42.9c0-11.6-9.5-21.1-21.1-21.1H55.7c-18.3,0-33.1,14.8-33.1,33.1v29.6c0,17.6,13.3,31.5,30.3,31.5h71c3.8,0,7.1-2.8,7.8-6.5l2.5-13.3c0,0,0-.2,0-.2l17.4-26.5-1.3-1.3-7,.9-.6.5-10.5,16.9-.5.9-6.1-18.6-1-.7-5.9.9-.8,1.2,8.8,24.7c0,0,0,.2,0,.3l-1.9,11.1c-.2,1.5-1.5,2.5-3,2.5H52.9c-13.2,0-23.1-10.4-23.1-24.3v-29.6c0-14.3,11.6-25.9,25.9-25.9h164.8c7.7,0,13.9,6.2,13.9,13.9v42.9c0,6.5,5.3,11.9,11.9,11.9h16.1c.7,0,1.4-.3,1.9-.8.5-.5.8-1.2.8-1.9v-49.1c0-1.5-1.2-2.7-2.7-2.7h0Z"/>
    <path class="cls-2" d="M74.2,111.6h26.7l.5-10.6h-26.8c-18.1,0-28.1,8.8-28.9,25.4-.4,7.9,1.5,14.1,5.6,18.4,4.5,4.7,11.5,7.1,21,7.1h26.7l.5-10.6h-26.8c-5.6,0-9.4-1.2-11.7-3.6-2.2-2.3-3.2-6-2.9-11.2.5-10.6,5.2-15,16.1-15h0Z"/>
    <path class="cls-2" d="M115.8,133.3c0-.1,0-.1,0-.1,0,0,.1-.1.7-.1h18.8c16.5,0,22.9-8.8,23.3-16.3.2-3.8-1-7.2-3.5-9.8-3.7-3.9-9.9-5.9-18.2-5.9h-33.2l-.6,10.6h33.8c3,0,5.4.7,6.7,2.1.8.9,1.2,2,1.2,3.3-.1,2.8-2.5,5.8-8.6,5.8h-22c-7.9,0-11.6,2.7-11.9,8.7l-1.1,20.4h13.7l1-18.6h0Z"/>
  </g>
</svg>