<?xml version="1.0" encoding="UTF-8"?>
<svg id="Layer_1" data-name="Layer 1" xmlns="http://www.w3.org/2000/svg" version="1.1" viewBox="0 0 288 288">
  <defs>
    <style>
      .cls-1 {
        fill: #3f51b5;
      }

      .cls-1, .cls-2 {
        stroke-width: 0px;
      }

      .cls-2 {
        fill: #fff;
      }
    </style>
  </defs>
  <path class="cls-1" d="M144,0h0c79.5,0,144,64.5,144,144h0c0,79.5-64.5,144-144,144h0C64.5,288,0,223.5,0,144h0C0,64.5,64.5,0,144,0Z"/>
  <g>
    <rect class="cls-2" x="244.3" y="126.3" width="6.8" height="9.9"/>
    <rect class="cls-2" x="244.3" y="148.8" width="6.8" height="9.9"/>
    <path class="cls-2" d="M185.4,154.1c0-8.3-6.2-13.8-15.8-14.1h.1c0-.1-.9-.1-.9-.1-10.9,0-18.5,6.4-20.3,17l-2.2,13.2c-.2,1.1-.3,2.2-.3,3.4,0,8.6,6.6,14.1,16.7,14.1s18.5-6.8,20.2-16.9l2.2-13.2c.2-1.1.3-2.2.3-3.4ZM177.1,155c0,.7,0,1.6-.2,2.4l-2,12.2c-1.1,6.8-5.3,10.4-12,10.4s-8.4-2.9-8.4-7.5,0-1.6,0-2.1c0,0,.1-.2.2-.4l2-12.2c1.1-6.8,5.3-10.4,12-10.4s8.4,2.9,8.4,7.5Z"/>
    <path class="cls-2" d="M218.4,140.9l-.2-.2-1.1,1.1-4.6,27.8c-1.1,6.5-5.3,10.3-11.4,10.3s-7.9-5.7-7.9-7.4,0-1.7,0-2c.1-.1.2-.3.2-.4l4.7-28.8-1.3-1.2-6,.8-.9.9-4.7,28.4c-.2,1.1-.3,2.2-.3,3.3,0,8.7,6.2,14,16.1,14s17.7-6.5,19.5-16.9l4.9-29.1v-.2s-1.3-1.2-1.3-1.2l-5.7.8Z"/>
    <path class="cls-2" d="M259.8,116.2h-.3c0,0-13.3,0-13.3,0-1.6,0-3,1.3-3,3v1.2c0,.8.3,1.5.9,2.1.6.6,1.3.9,2.1.9h9.3c0,0,.1,0,.1,0,0,0,0,.1,0,.1v38.8s0,0,0,0c0,0-.1,0-.2.1h-10.6c-2.7,0-4.8-2.2-4.8-4.9v-41.3c0-11.4-9.3-20.7-20.7-20.7H61c-17.8,0-32.2,14.4-32.2,32.2v28.5c0,17.2,13,30.7,29.5,30.7h68.3c3.8,0,7.2-2.8,7.9-6.6l2.4-12.9,16.8-25.7-1.6-1.6-7,.9-.7.6-10.2,16.4h0c0,.1-5.6-17.1-5.6-17.1l-1.2-.8-6,.9-1,1.4,8.5,23.9v.2s-1.8,10.7-1.8,10.7c-.2,1.2-1.2,2.1-2.5,2.1H58.4c-12.4,0-21.8-9.9-21.8-23v-28.5c0-13.5,11-24.5,24.5-24.5h158.5c7.2,0,13,5.8,13,13v41.3c0,6.5,5.3,11.8,11.8,11.8h15.5c.8,0,1.5-.3,2.1-.9.6-.6.9-1.3.9-2.1v-47.2c0-1.6-1.3-3-3-3Z"/>
    <path class="cls-2" d="M103.9,118.4l.5-10.9h-26.2c-17.6,0-27.4,8.6-28.2,24.8-.4,7.7,1.5,13.7,5.5,18,4.4,4.6,11.3,6.9,20.5,6.9h26l.5-10.9h-26.2c-5.2,0-8.8-1.1-11-3.3-2.1-2.2-3-5.7-2.7-10.5.5-9.9,4.7-14,14.7-14.1h0c0,0,26.4,0,26.4,0Z"/>
    <path class="cls-2" d="M138.5,128.6h-21.2c-7.8,0-11.5,2.8-11.8,8.7l-1.1,20h13.9l1-18.2c0,0,.1,0,.2,0h18.1c16.2,0,22.4-8.6,22.8-16,.2-3.8-1-7.1-3.5-9.7-3.6-3.8-9.6-5.8-17.8-5.8h-32.3l-.6,10.9h32.9c2.8,0,5,.7,6.2,1.9.7.8,1.1,1.8,1.1,2.9,0,2.4-2.2,5.2-7.9,5.2Z"/>
  </g>
</svg>