<?xml version="1.0" encoding="UTF-8"?>
<svg id="Layer_1" data-name="Layer 1" xmlns="http://www.w3.org/2000/svg" viewBox="0 0 364.05 142.54">
  <defs>
    <style>
      .cls-1 {
        fill: #000;
        stroke-width: 0px;
      }
    </style>
  </defs>
  <path class="cls-1" d="M218,69.26c-16.71,0-28.31,9.74-31.02,26.06l-3.38,20.52c-.3,1.61-.45,3.37-.45,5.21,0,13.04,10.03,21.47,25.54,21.47,16.66,0,28.22-9.7,30.92-25.95l3.49-20.63c.3-1.61.45-3.36.45-5.21,0-13.04-10.03-21.47-25.54-21.47ZM231.61,92.25c0,1.24-.1,2.59-.3,3.89l-3.17,19.03c-1.83,10.9-8.52,16.66-19.34,16.66-8.84,0-13.72-4.36-13.72-12.28,0-1.24.11-2.59.3-3.88l3.17-19.04c1.83-10.9,8.52-16.66,19.34-16.66,8.84,0,13.71,4.36,13.71,12.28Z"/>
  <path class="cls-1" d="M295.07,70.75l-1.25,1.2-7.17,43.32c-1.75,10.53-8.45,16.56-18.39,16.56-10.72,0-12.97-6.62-12.97-12.18,0-1.25.1-2.6.3-3.88l7.43-44.63-1.64-1.56-8.83,1.17-1.26,1.19-7.38,44.21c-.3,1.64-.45,3.31-.45,5.11,0,13.12,9.42,21.27,24.59,21.27,16.48,0,27.09-9.18,29.86-25.86l7.65-45.53-1.64-1.56-8.83,1.17Z"/>
  <rect class="cls-1" x="336.63" y="48.02" width="9.42" height="14.2"/>
  <rect class="cls-1" x="336.63" y="83.08" width="9.42" height="14.2"/>
  <path class="cls-1" d="M360.06,32.33h-21.09c-2.2,0-3.99,1.79-3.99,3.98v1.75c0,1.07.42,2.07,1.17,2.82.75.75,1.75,1.16,2.81,1.16h.02l14.59-.07h0c.25,0,.49.1.66.27.18.18.28.42.28.67v60.48c0,.25-.1.49-.28.66s-.41.28-.67.28h0l-16.57-.05c-4.5-.01-8.15-3.68-8.15-8.18V31.66c0-17.46-14.2-31.66-31.66-31.66H49.71C22.3,0,0,22.3,0,49.71v44.5c0,26.49,19.97,47.25,45.47,47.25l106.59-.12c5.71,0,10.62-4.09,11.67-9.7l3.73-19.98c.02-.12.07-.24.14-.34l26.14-39.85-1.98-1.88-10.55,1.35-.97.77-15.83,25.44-.76,1.35-9.13-27.9-1.57-1-8.93,1.28-1.25,1.79,13.27,37.11c.06.15.07.32.04.48l-2.81,16.64c-.37,2.2-2.26,3.79-4.49,3.79H45.47c-19.78,0-34.7-15.68-34.7-36.48v-44.5c0-21.47,17.47-38.94,38.94-38.94h247.49c11.52,0,20.9,9.37,20.9,20.9v64.46c0,9.82,7.99,17.82,17.81,17.84l24.16.03h0c1.06,0,2.06-.41,2.81-1.16.76-.75,1.17-1.76,1.17-2.82V36.32c0-2.2-1.79-3.98-3.98-3.98Z"/>
  <path class="cls-1" d="M77.44,34.62h40.15l.75-15.87h-40.29c-27.21,0-42.22,13.2-43.4,38.18-.56,11.87,2.27,21.16,8.41,27.6,6.72,7.04,17.32,10.61,31.52,10.61h40.14l.75-15.87h-40.29c-8.41,0-14.16-1.75-17.58-5.34-3.32-3.48-4.75-9-4.38-16.87.76-15.95,7.77-22.46,24.22-22.46Z"/>
  <path class="cls-1" d="M139.92,67.19c0-.17.04-.22.04-.22,0,0,.22-.19,1.06-.19h28.18c24.82,0,34.33-13.19,34.93-24.48.3-5.67-1.51-10.74-5.25-14.69-5.5-5.8-14.93-8.87-27.28-8.87h-49.79l-.85,15.87h50.69c4.58,0,8.04,1.09,9.99,3.16,1.26,1.32,1.87,3.06,1.76,5.02-.22,4.19-3.75,8.67-12.96,8.67h-33.07c-11.87,0-17.38,4.03-17.86,13.07l-1.63,30.62h20.55l1.49-27.96Z"/>
</svg>